# xmcd
#
# Track frame offsets: 
#        150
#        17022
#        30967
#        47061
#        68749
#        89573
#        107552
#        134755
#        149205
#        165642
#        183977
#        195724
#        219426
#        244032
#
# Disc length: 3502 seconds
#
# Revision: 0
# Processed by: cddbd v1.5.2PL0 Copyright (c) Steve Scherf et al.
# Submitted via: ExactAudioCopyFreeDBPlugin 1.0
#
DISCID=c90dac0e
DTITLE=Zeca Baleiro - Baladas do Asfalto and Outros Blues - Ao Vivo
DYEAR=1900
DGENRE=Brasileira
TTITLE0=Versos Perdidos
TTITLE1=Meu Amor, Minha Flor, Minha Menina
TTITLE2=Cachorro Doido
TTITLE3=Flores no Asfalto
TTITLE4=Babylon
TTITLE5=Retalhos de Cetim
TTITLE6=Telegramas
TTITLE7=Balada do Céu Negro
TTITLE8=Palavras
TTITLE9=Não Adianta
TTITLE10=Fiz Esta Canção
TTITLE11=Heavy Metal do Senhor
TTITLE12=Quase Nada Amor
TTITLE13=Alma Nova
EXTD=
EXTT0=
EXTT1=
EXTT2=
EXTT3=
EXTT4=
EXTT5=
EXTT6=
EXTT7=
EXTT8=
EXTT9=
EXTT10=
EXTT11=
EXTT12=
EXTT13=
PLAYORDER=
